# xmcd CD database file
#
# Track frame offsets:
#	150
#	23258
#	48407
#	66730
#	81713
#	105424
#	139385
#	161325
#	184934
#	212704
#	230735
#	253259
#	276933
#
# Disc length: 4009 seconds
#
# Revision: 0
# Processed by: cddbd v1.5.2PL0 Copyright (c) Steve Scherf et al.
# Submitted via: CDex 1.51
#
DISCID=c40fa70d
DTITLE=2002 - Timeless
DYEAR=2007
DGENRE=New Age
TTITLE0=Land Of Forever
TTITLE1=Elysian Fields
TTITLE2=A Voice In The Night
TTITLE3=Timeless
TTITLE4=Magic Flower
TTITLE5=Icarus
TTITLE6=Starwalkers
TTITLE7=Valley Of Healing Waters
TTITLE8=The Year
TTITLE9=Dreaming Of You
TTITLE10=Secret Shores
TTITLE11=Temple Of Apollo
TTITLE12=The River's Journey
EXTD=YEAR: 2007
EXTT0=
EXTT1=
EXTT2=
EXTT3=
EXTT4=
EXTT5=
EXTT6=
EXTT7=
EXTT8=
EXTT9=
EXTT10=
EXTT11=
EXTT12=
PLAYORDER=
